<svg width="226" height="419" viewBox="0 0 226 419" fill="none" xmlns="http://www.w3.org/2000/svg">
<path d="M151.623 210.888V237.829C151.623 241.695 154.757 244.829 158.623 244.829H185.562C189.428 244.829 192.562 241.695 192.562 237.829V210.888C192.562 207.022 189.428 203.888 185.562 203.888H158.623C154.756 203.888 151.623 207.022 151.623 210.888ZM178.562 217.888V230.829H165.623V217.888H178.562ZM134.903 372.179V345.239C134.903 341.373 131.769 338.239 127.903 338.239H100.963C97.097 338.239 93.963 341.373 93.963 345.239V372.179C93.963 376.045 97.097 379.179 100.963 379.179H127.903C131.769 379.179 134.903 376.045 134.903 372.179ZM107.963 365.179V352.239H120.903V365.179H107.963ZM226 402.135V17.7761C226 8.47613 218.434 0.911133 209.134 0.911133L16.954 0.911133C7.65498 0.911133 0.0889893 8.47613 0.0889893 17.7761V402.135C0.0889893 411.434 7.65398 419 16.954 419H209.134C218.434 419 226 411.434 226 402.135ZM16.955 405C15.402 405 14.09 403.688 14.09 402.135V17.7761C14.09 16.2231 15.403 14.9111 16.955 14.9111L209.135 14.9111C210.688 14.9111 212 16.2231 212 17.7761V402.135C212 403.688 210.687 405 209.135 405H16.955ZM151.623 318.298V372.178C151.623 376.044 154.757 379.178 158.623 379.178H185.562C189.428 379.178 192.562 376.044 192.562 372.178V318.298C192.562 314.432 189.428 311.298 185.562 311.298H158.623C154.756 311.298 151.623 314.432 151.623 318.298ZM178.562 325.298V365.178H165.623V325.298H178.562ZM151.623 264.758V291.698C151.623 295.564 154.757 298.698 158.623 298.698H185.562C189.428 298.698 192.562 295.564 192.562 291.698V264.758C192.562 260.892 189.428 257.758 185.562 257.758H158.623C154.756 257.758 151.623 260.891 151.623 264.758ZM178.562 271.758V284.698H165.623V271.758H178.562ZM134.903 235.951C134.903 232.085 131.769 228.951 127.903 228.951H100.963C97.097 228.951 93.963 232.085 93.963 235.951V262.891C93.963 266.757 97.097 269.891 100.963 269.891H127.903C131.769 269.891 134.903 266.757 134.903 262.891V235.951ZM107.963 255.891V242.951H120.903V255.891H107.963ZM134.903 47.7321C134.903 43.8661 131.769 40.7321 127.903 40.7321H100.963C97.097 40.7321 93.963 43.8661 93.963 47.7321V101.612C93.963 105.478 97.097 108.612 100.963 108.612H127.903C131.769 108.612 134.903 105.478 134.903 101.612V47.7321ZM107.963 94.6121V54.7321H120.903V94.6121H107.963ZM134.903 182.081C134.903 178.215 131.769 175.081 127.903 175.081H100.963C97.097 175.081 93.963 178.215 93.963 182.081V209.022C93.963 212.888 97.097 216.022 100.963 216.022H127.903C131.769 216.022 134.903 212.888 134.903 209.022V182.081ZM107.963 202.022V189.081H120.903V202.022H107.963ZM77.245 316.76V103.15C77.245 99.2841 74.111 96.1501 70.245 96.1501H43.305C39.439 96.1501 36.305 99.2841 36.305 103.15V316.76C36.305 320.626 39.439 323.76 43.305 323.76H70.245C74.111 323.76 77.245 320.626 77.245 316.76ZM50.304 309.76V110.15H63.244V309.76H50.304ZM151.623 103.15V130.089C151.623 133.955 154.757 137.089 158.623 137.089H185.562C189.428 137.089 192.562 133.955 192.562 130.089V103.15C192.562 99.2841 189.428 96.1501 185.562 96.1501H158.623C154.756 96.1501 151.623 99.2841 151.623 103.15ZM178.562 110.15V123.089H165.623V110.15H178.562ZM151.623 47.7311V74.6711C151.623 78.5371 154.757 81.6711 158.623 81.6711H185.562C189.428 81.6711 192.562 78.5371 192.562 74.6711V47.7311C192.562 43.8651 189.428 40.7311 185.562 40.7311H158.623C154.756 40.7311 151.623 43.8651 151.623 47.7311ZM178.562 54.7311V67.6711H165.623V54.7311H178.562ZM77.245 74.6721V47.7321C77.245 43.8661 74.111 40.7321 70.245 40.7321H43.305C39.439 40.7321 36.305 43.8661 36.305 47.7321V74.6721C36.305 78.5381 39.439 81.6721 43.305 81.6721H70.245C74.111 81.6721 77.245 78.5381 77.245 74.6721ZM50.304 67.6721V54.7321H63.244V67.6721H50.304ZM134.903 316.76V289.821C134.903 285.955 131.769 282.821 127.903 282.821H100.963C97.097 282.821 93.963 285.955 93.963 289.821V316.759C93.963 320.625 97.097 323.759 100.963 323.759H127.903C131.769 323.76 134.903 320.626 134.903 316.76ZM107.963 309.76V296.821H120.903V309.759H107.963V309.76ZM77.245 372.179V345.239C77.245 341.373 74.111 338.239 70.245 338.239H43.305C39.439 338.239 36.305 341.373 36.305 345.239V372.179C36.305 376.045 39.439 379.179 43.305 379.179H70.245C74.111 379.179 77.245 376.045 77.245 372.179ZM50.304 365.179V352.239H63.244V365.179H50.304ZM151.623 157.019V183.959C151.623 187.825 154.757 190.959 158.623 190.959H185.562C189.428 190.959 192.562 187.825 192.562 183.959V157.019C192.562 153.153 189.428 150.019 185.562 150.019H158.623C154.756 150.019 151.623 153.154 151.623 157.019ZM178.562 164.019V176.959H165.623V164.019H178.562ZM134.903 128.213C134.903 124.347 131.769 121.213 127.903 121.213H100.963C97.097 121.213 93.963 124.347 93.963 128.213V155.153C93.963 159.019 97.097 162.153 100.963 162.153H127.903C131.769 162.153 134.903 159.019 134.903 155.153V128.213ZM107.963 148.153V135.213H120.903V148.153H107.963Z" fill="black"/>
</svg>
