<svg width="36" height="36" viewBox="0 0 36 36" fill="none" xmlns="http://www.w3.org/2000/svg">
<path d="M26.5 30L26.5 6M26.5 6L22 10.1739M26.5 6L31 10.1739" stroke="black" stroke-width="2" stroke-miterlimit="1.73976" stroke-linecap="round" stroke-linejoin="round"/>
<path d="M11.2651 30.172C10.9531 30.172 10.6931 30.068 10.4851 29.86C10.2944 29.652 10.1991 29.4007 10.1991 29.106V26.636L10.7191 27.13C9.50575 27.1127 8.41375 26.9567 7.44308 26.662C6.47241 26.35 5.65774 25.9773 4.99908 25.544C4.75641 25.388 4.58308 25.1887 4.47908 24.946C4.37508 24.7033 4.34041 24.4607 4.37508 24.218C4.42708 23.9753 4.53108 23.7673 4.68708 23.594C4.84308 23.4207 5.03374 23.3167 5.25908 23.282C5.48441 23.2473 5.74441 23.3167 6.03908 23.49C6.57641 23.8367 7.24374 24.1487 8.04108 24.426C8.85575 24.7033 9.84375 24.842 11.0051 24.842C11.9411 24.842 12.7037 24.7207 13.2931 24.478C13.8997 24.2353 14.3417 23.906 14.6191 23.49C14.9137 23.074 15.0611 22.5887 15.0611 22.034C15.0611 21.5833 14.9571 21.1933 14.7491 20.864C14.5584 20.5347 14.2377 20.2573 13.7871 20.032C13.3364 19.7893 12.7384 19.59 11.9931 19.434L9.31508 18.862C7.73775 18.5153 6.55908 17.9433 5.77908 17.146C5.01641 16.3487 4.63508 15.3 4.63508 14C4.63508 12.9773 4.87774 12.0673 5.36308 11.27C5.86574 10.4727 6.55908 9.84 7.44308 9.372C8.34441 8.904 9.39308 8.63533 10.5891 8.566L10.1991 8.93V6.564C10.1991 6.26933 10.2944 6.018 10.4851 5.81C10.6931 5.602 10.9531 5.498 11.2651 5.498C11.5597 5.498 11.8111 5.602 12.0191 5.81C12.2271 6.018 12.3311 6.26933 12.3311 6.564V8.93L11.8891 8.566C12.6864 8.58333 13.5357 8.748 14.4371 9.06C15.3384 9.35467 16.1097 9.77933 16.7511 10.334C16.9591 10.5073 17.0891 10.7067 17.1411 10.932C17.2104 11.1573 17.2104 11.374 17.1411 11.582C17.0891 11.79 16.9851 11.9633 16.8291 12.102C16.6731 12.2407 16.4737 12.3187 16.2311 12.336C15.9884 12.3533 15.7284 12.2667 15.4511 12.076C14.8964 11.6947 14.2811 11.3913 13.6051 11.166C12.9464 10.9407 12.1577 10.828 11.2391 10.828C10.0257 10.828 9.06375 11.114 8.35308 11.686C7.64241 12.258 7.28708 13.0033 7.28708 13.922C7.28708 14.6153 7.50374 15.1787 7.93708 15.612C8.37041 16.028 9.09841 16.3487 10.1211 16.574L12.8511 17.146C14.5151 17.51 15.7457 18.0733 16.5431 18.836C17.3404 19.5987 17.7391 20.6127 17.7391 21.878C17.7391 22.866 17.4877 23.7413 16.9851 24.504C16.4824 25.2493 15.7891 25.8473 14.9051 26.298C14.0384 26.7313 13.0331 27 11.8891 27.104L12.3311 26.61V29.106C12.3311 29.4007 12.2271 29.652 12.0191 29.86C11.8284 30.068 11.5771 30.172 11.2651 30.172Z" fill="black"/>
</svg>
