<svg width="36" height="36" viewBox="0 0 36 36" fill="none" xmlns="http://www.w3.org/2000/svg">
<path d="M26.5 6V30M26.5 30L31 25.8261M26.5 30L22 25.8261" stroke="black" stroke-width="2" stroke-miterlimit="1.73976" stroke-linecap="round" stroke-linejoin="round"/>
<path d="M6.83136 29C6.55136 29 6.32269 28.944 6.14536 28.832C5.96803 28.7107 5.84669 28.552 5.78136 28.356C5.72536 28.1507 5.72536 27.9267 5.78136 27.684C5.84669 27.4413 5.97736 27.1987 6.17336 26.956L11.2694 20.278V20.936H6.66336C6.35536 20.936 6.11736 20.8567 5.94936 20.698C5.79069 20.5393 5.71136 20.3153 5.71136 20.026C5.71136 19.7367 5.79069 19.5173 5.94936 19.368C6.11736 19.2093 6.35536 19.13 6.66336 19.13H12.2914C12.5807 19.13 12.8094 19.1907 12.9774 19.312C13.1547 19.424 13.276 19.578 13.3414 19.774C13.4067 19.97 13.4067 20.194 13.3414 20.446C13.276 20.6887 13.1454 20.9313 12.9494 21.174L7.85336 27.838V27.194H12.6834C12.9914 27.194 13.2247 27.2733 13.3834 27.432C13.5514 27.5813 13.6354 27.8007 13.6354 28.09C13.6354 28.3887 13.5514 28.6173 13.3834 28.776C13.2247 28.9253 12.9914 29 12.6834 29H6.83136Z" fill="black"/>
<path d="M5.50349 16.126C5.24216 16.126 5.02749 16.0653 4.85949 15.944C4.70083 15.8227 4.59816 15.6593 4.55149 15.454C4.51416 15.2487 4.55616 15.02 4.67749 14.768L8.26149 6.914C8.41083 6.59667 8.58816 6.368 8.79349 6.228C8.99883 6.07867 9.23683 6.004 9.50749 6.004C9.77816 6.004 10.0162 6.07867 10.2215 6.228C10.4268 6.368 10.5995 6.59667 10.7395 6.914L14.3515 14.768C14.4728 15.02 14.5148 15.2533 14.4775 15.468C14.4495 15.6733 14.3562 15.8367 14.1975 15.958C14.0388 16.07 13.8335 16.126 13.5815 16.126C13.2642 16.126 13.0168 16.0513 12.8395 15.902C12.6715 15.7527 12.5222 15.5193 12.3915 15.202L11.5515 13.256L12.4195 13.858H6.58149L7.44949 13.256L6.62349 15.202C6.48349 15.5287 6.33416 15.7667 6.17549 15.916C6.02616 16.056 5.80216 16.126 5.50349 16.126ZM9.47949 8.44L7.68749 12.71L7.30949 12.164H11.6915L11.3135 12.71L9.50749 8.44H9.47949Z" fill="black"/>
</svg>
