<svg width="36" height="36" viewBox="0 0 36 36" fill="none" xmlns="http://www.w3.org/2000/svg">
<path d="M26.5 30L26.5 6M26.5 6L22 10.1739M26.5 6L31 10.1739" stroke="black" stroke-width="2" stroke-miterlimit="1.73976" stroke-linecap="round" stroke-linejoin="round"/>
<path d="M7.23473 29C6.8894 29 6.63273 28.9207 6.46473 28.762C6.30607 28.594 6.22673 28.3513 6.22673 28.034C6.22673 27.8287 6.27807 27.6373 6.38073 27.46C6.4834 27.2827 6.6234 27.1007 6.80073 26.914L9.43273 24.142C9.82473 23.722 10.1047 23.3487 10.2727 23.022C10.4501 22.6953 10.5387 22.3687 10.5387 22.042C10.5387 21.6313 10.4034 21.3187 10.1327 21.104C9.8714 20.8893 9.48873 20.782 8.98473 20.782C8.71407 20.782 8.43407 20.824 8.14473 20.908C7.86473 20.9827 7.57073 21.1087 7.26273 21.286C7.0574 21.398 6.86607 21.44 6.68873 21.412C6.52073 21.3747 6.37607 21.2953 6.25473 21.174C6.1334 21.0433 6.05407 20.8893 6.01673 20.712C5.9794 20.5347 5.99807 20.3573 6.07273 20.18C6.1474 20.0027 6.2874 19.8533 6.49273 19.732C6.9034 19.48 7.3514 19.2933 7.83673 19.172C8.32207 19.0413 8.80273 18.976 9.27873 18.976C10.0161 18.976 10.6367 19.088 11.1407 19.312C11.6447 19.5267 12.0274 19.844 12.2887 20.264C12.5501 20.684 12.6807 21.1973 12.6807 21.804C12.6807 22.196 12.6201 22.5787 12.4987 22.952C12.3774 23.3253 12.1861 23.7033 11.9247 24.086C11.6727 24.4593 11.3367 24.8607 10.9167 25.29L8.46673 27.782V27.222H12.2607C12.5594 27.222 12.7834 27.2967 12.9327 27.446C13.0914 27.5953 13.1707 27.8147 13.1707 28.104C13.1707 28.3933 13.0914 28.6173 12.9327 28.776C12.7834 28.9253 12.5594 29 12.2607 29H7.23473Z" fill="black"/>
<path d="M7.50073 16C7.20207 16 6.9734 15.9207 6.81473 15.762C6.65607 15.6033 6.57673 15.384 6.57673 15.104C6.57673 14.8147 6.65607 14.5953 6.81473 14.446C6.9734 14.2967 7.20207 14.222 7.50073 14.222H8.91473V7.908H9.93673L7.89273 9.154C7.67807 9.28467 7.4774 9.336 7.29073 9.308C7.1134 9.28 6.9594 9.20067 6.82873 9.07C6.69807 8.93933 6.6094 8.78533 6.56273 8.608C6.5254 8.42133 6.54407 8.23933 6.61873 8.062C6.6934 7.87533 6.8334 7.71667 7.03873 7.586L8.98473 6.41C9.18073 6.28867 9.37673 6.19067 9.57273 6.116C9.77807 6.04133 9.97873 6.004 10.1747 6.004C10.4547 6.004 10.6741 6.07867 10.8327 6.228C11.0007 6.368 11.0847 6.58733 11.0847 6.886V14.222H12.3587C12.6481 14.222 12.8721 14.2967 13.0307 14.446C13.1894 14.5953 13.2687 14.8147 13.2687 15.104C13.2687 15.3933 13.1894 15.6173 13.0307 15.776C12.8721 15.9253 12.6481 16 12.3587 16H7.50073Z" fill="black"/>
</svg>
